<?xml version="1.0" encoding="iso-8859-1"?>
<!-- Uploaded to: SVG Repo, www.svgrepo.com, Generator: SVG Repo Mixer Tools -->
<!DOCTYPE svg PUBLIC "-//W3C//DTD SVG 1.1//EN" "http://www.w3.org/Graphics/SVG/1.1/DTD/svg11.dtd">
<svg fill="#000000" version="1.1" id="Capa_1" xmlns="http://www.w3.org/2000/svg" xmlns:xlink="http://www.w3.org/1999/xlink" 
	 width="800px" height="800px" viewBox="0 0 220.442 220.442"
	 xml:space="preserve">
<g>
	<path d="M151.636,85.351c2.241-1.85,3.524-4.557,3.524-7.416c0-5.314-4.322-9.637-9.637-9.637c-2.611,0-5.055,1.032-6.803,2.825
		l-69.186,66.608c-2.096,1.838-3.294,4.47-3.294,7.221c0,5.318,4.32,9.638,9.637,9.638c2.799,0,5.441-1.226,7.289-3.368
		L151.636,85.351z M77.897,146.592c-0.303,0.366-0.968,0.989-2.022,0.989c-1.447,0-2.628-1.185-2.628-2.629
		c0-1.006,0.568-1.656,1.026-2.06l69.386-66.804c0.496-0.508,1.157-0.789,1.865-0.789c1.448,0,2.628,1.182,2.628,2.628
		c0,1.049-0.615,1.711-1.177,2.19l-68.803,66.176C78.079,146.39,77.988,146.489,77.897,146.592z"/>
	<path d="M176.71,131.928c-4.768,0-9.452,0.76-13.945,2.266l-23.969-23.972l24.444-24.447c4.059,1.205,8.258,1.819,12.519,1.819
		c11.683,0,22.658-4.546,30.901-12.795c12.505-12.506,16.27-31.174,9.582-47.549c-0.441-1.086-1.399-1.879-2.553-2.113
		c-1.146-0.221-2.337,0.13-3.169,0.957l-20.225,20.22l-16.235-0.866l-0.869-16.238l20.226-20.22c0.828-0.826,1.19-2.019,0.954-3.167
		c-0.229-1.153-1.026-2.11-2.111-2.555c-5.276-2.156-10.858-3.249-16.58-3.249c-11.697,0-22.696,4.555-30.971,12.83
		c-12.241,12.237-16.063,30.151-10.051,46.231l-23.503,23.503L85.778,57.203c4.522-15.288,0.332-32.115-10.98-43.424
		C66.525,5.508,55.525,0.95,43.828,0.95c-5.727,0-11.305,1.097-16.579,3.248c-1.086,0.441-1.879,1.398-2.113,2.555
		c-0.231,1.15,0.127,2.341,0.957,3.169l20.22,20.224l-0.866,16.234l-16.238,0.869L8.988,27.025
		c-0.828-0.826-2.016-1.181-3.169-0.957c-1.151,0.231-2.11,1.027-2.555,2.113c-6.682,16.378-2.922,35.043,9.583,47.549
		c8.252,8.252,19.23,12.797,30.914,12.797c5.28,0,10.422-0.924,15.317-2.747l24.439,24.44L58.624,135.11
		c-4.497-1.499-9.182-2.262-13.94-2.262c-11.683,0-22.663,4.545-30.912,12.795c-12.503,12.502-16.264,31.17-9.574,47.548
		c0.445,1.088,1.398,1.879,2.555,2.115c1.153,0.219,2.341-0.13,3.167-0.958l20.216-20.219l16.24,0.862l0.866,16.242l-20.216,20.218
		c-0.832,0.828-1.192,2.02-0.957,3.169c0.231,1.149,1.027,2.108,2.113,2.553c5.277,2.156,10.855,3.251,16.579,3.251
		c11.697,0,22.694-4.559,30.964-12.833c11.764-11.755,15.776-29.13,10.523-44.83l24.901-24.903l23.958,23.959
		c-5.215,15.659-1.122,33.188,10.54,44.851c8.265,8.268,19.261,12.823,30.964,12.823c5.726,0,11.304-1.092,16.58-3.248
		c1.089-0.445,1.879-1.396,2.115-2.553c0.229-1.15-0.127-2.341-0.958-3.169l-20.218-20.219l0.865-16.237l16.238-0.866l20.218,20.218
		c0.832,0.828,2.022,1.178,3.169,0.955c1.153-0.229,2.108-1.026,2.553-2.111c6.688-16.379,2.927-35.043-9.578-47.544
		C199.355,136.466,188.39,131.928,176.71,131.928z M62.403,79.19c-0.669-0.67-1.566-1.028-2.478-1.028
		c-0.473,0-0.95,0.096-1.398,0.291c-4.671,2.04-9.637,3.07-14.757,3.07c-9.811,0-19.032-3.816-25.958-10.744
		c-9.204-9.206-12.77-22.381-9.736-34.756l17.29,17.291c0.702,0.705,1.622,1.086,2.668,1.023l20.943-1.121
		c1.788-0.094,3.219-1.528,3.312-3.316l1.114-20.937c0.053-0.993-0.318-1.963-1.023-2.664L35.094,9.009
		c2.849-0.689,5.768-1.043,8.74-1.043c9.827,0,19.063,3.831,26.016,10.776c9.941,9.938,13.331,24.956,8.636,38.263
		c-0.45,1.271-0.127,2.691,0.826,3.645l26.895,26.895L88.483,105.27L62.403,79.19z M78.938,163.142
		c5.383,13.658,2.176,29.16-8.162,39.498c-6.945,6.951-16.183,10.776-26.008,10.776c-2.972,0-5.895-0.353-8.74-1.047l17.284-17.285
		c0.703-0.702,1.075-1.674,1.023-2.663l-1.114-20.946c-0.096-1.79-1.528-3.221-3.316-3.312l-20.945-1.116
		c-0.98-0.041-1.963,0.318-2.663,1.023L9.009,185.354c-3.035-12.374,0.525-25.55,9.728-34.748
		c6.932-6.934,16.144-10.746,25.957-10.746c4.208,0,8.354,0.705,12.329,2.111c0.171,0.059,0.335,0.137,0.505,0.213l0.71,0.297
		c1.297,0.496,2.755,0.188,3.735-0.794l28.98-28.981c0.003,0,0.003,0,0.007-0.004l22.681-22.68c0,0,0-0.003,0.003-0.003
		l27.617-27.617c1.02-1.02,1.311-2.555,0.739-3.875c-6.095-13.976-3.087-29.959,7.672-40.717
		c6.951-6.945,16.19-10.776,26.016-10.776c2.974,0,5.896,0.351,8.74,1.044l-17.289,17.28c-0.705,0.702-1.078,1.675-1.023,2.668
		l1.119,20.945c0.096,1.786,1.53,3.217,3.316,3.311l20.937,1.114c0.989,0.066,1.965-0.318,2.666-1.023l17.292-17.29
		c3.032,12.378-0.53,25.553-9.735,34.759c-6.927,6.928-16.14,10.742-25.947,10.742c-4.213,0-8.354-0.708-12.316-2.11
		c-1.276-0.454-2.693-0.126-3.645,0.826l-39.677,39.683l-11.447,11.44c0,0,0,0.004-0.003,0.004l-28.955,28.955
		C78.734,160.366,78.429,161.845,78.938,163.142z M212.379,184.424l-17.292-17.289c-0.705-0.701-1.677-1.067-2.662-1.02
		l-20.947,1.112c-1.79,0.096-3.221,1.529-3.312,3.316l-1.116,20.943c-0.051,0.992,0.321,1.964,1.023,2.662l17.285,17.285
		c-2.847,0.695-5.77,1.044-8.74,1.044c-9.832,0-19.062-3.826-26.012-10.766c-9.941-9.945-13.333-24.969-8.634-38.287
		c0.062-0.171,0.137-0.336,0.212-0.503l0.298-0.712c0.496-1.294,0.185-2.759-0.798-3.737l-25.573-25.574l8.932-8.932l8.799-8.791
		l25.546,25.55c0.985,0.981,2.471,1.297,3.758,0.783c4.332-1.704,8.897-2.573,13.565-2.573c9.801,0,19.01,3.812,25.93,10.735
		C211.849,158.874,215.408,172.046,212.379,184.424z"/>
</g>
</svg>